<?xml version="1.0" standalone="no"?>
<!DOCTYPE svg PUBLIC "-//W3C//DTD SVG 20010904//EN"
 "http://www.w3.org/TR/2001/REC-SVG-20010904/DTD/svg10.dtd">
<svg version="1.0" xmlns="http://www.w3.org/2000/svg"
 width="1024.000000pt" height="1024.000000pt" viewBox="0 0 1024.000000 1024.000000"
 preserveAspectRatio="xMidYMid meet">
<metadata>
Created by potrace 1.16, written by Peter Selinger 2001-2019
</metadata>
<g transform="translate(0.000000,1024.000000) scale(0.100000,-0.100000)"
fill="#000000" stroke="none">
<path d="M7177 8493 c-116 -208 -377 -640 -478 -790 -28 -41 -57 -90 -65 -109
l-15 -35 43 5 c161 20 246 28 267 25 24 -4 22 -9 -71 -189 -188 -366 -374
-652 -587 -905 -500 -593 -967 -962 -1659 -1310 -459 -230 -878 -391 -1277
-489 -264 -66 -440 -105 -615 -136 -96 -18 -177 -34 -179 -36 -3 -3 5 -33 17
-69 12 -35 31 -112 43 -170 12 -58 27 -105 33 -105 43 0 530 117 756 182 514
147 902 300 1385 547 572 292 942 553 1348 950 89 86 293 310 377 413 161 198
302 390 364 495 17 29 58 96 92 150 135 217 239 413 340 641 15 35 28 51 35
46 7 -4 78 -13 158 -20 80 -7 163 -16 184 -20 46 -7 52 -26 -73 236 -181 380
-248 524 -300 653 -29 70 -56 129 -60 132 -5 3 -33 -39 -63 -92z"/>
<path d="M4782 7980 l3 -181 -25 -4 c-133 -25 -209 -55 -343 -135 -220 -132
-353 -303 -409 -525 -29 -113 -22 -290 16 -388 44 -117 88 -189 162 -263 103
-105 248 -169 493 -217 l114 -22 -6 -224 c-3 -123 -8 -225 -10 -227 -2 -2 -29
3 -60 11 -115 30 -247 113 -348 217 l-66 69 -83 -78 c-99 -94 -300 -316 -300
-332 0 -17 155 -171 220 -218 30 -22 87 -57 125 -78 39 -21 83 -47 99 -58 l29
-21 41 23 c23 13 124 66 226 119 159 82 351 193 427 247 19 13 20 19 12 47 -5
20 -6 117 -3 236 l7 203 26 -6 c14 -3 54 -19 89 -36 84 -41 117 -86 133 -184
l12 -74 36 27 c82 60 203 167 320 282 l123 121 -12 47 c-16 65 -66 156 -112
203 -91 94 -249 162 -489 210 -58 11 -112 25 -120 30 -11 6 -13 51 -11 235 1
125 3 228 5 230 7 7 126 -30 177 -56 67 -34 172 -118 220 -176 19 -24 38 -42
42 -41 3 1 34 36 68 77 100 121 248 278 280 297 17 9 30 22 30 28 0 18 -173
179 -250 231 -81 56 -167 95 -270 125 -76 23 -229 49 -281 49 l-37 0 5 153 c2
83 5 164 7 180 l3 27 -160 0 -159 0 4 -180z m8 -914 c0 -113 -3 -207 -7 -209
-19 -11 -104 26 -145 62 -91 81 -90 207 4 286 37 31 104 64 131 65 16 0 17
-16 17 -204z"/>
<path d="M5381 8103 c5 -13 9 -43 9 -67 0 -23 6 -49 13 -58 6 -8 48 -28 92
-43 44 -16 145 -60 225 -98 80 -38 208 -91 285 -119 77 -27 184 -69 238 -94
54 -24 101 -44 103 -44 3 0 12 16 19 35 8 19 28 49 43 67 15 18 43 52 61 75
30 39 31 44 14 50 -10 3 -88 37 -173 76 -315 140 -554 204 -897 241 -41 4 -42
3 -32 -21z"/>
<path d="M4335 7989 c-86 -30 -403 -188 -513 -256 -276 -172 -521 -398 -736
-681 -94 -123 -238 -360 -316 -517 -212 -430 -310 -841 -310 -1302 0 -136 25
-480 36 -492 2 -2 54 6 116 18 62 11 124 22 138 23 20 2 25 8 22 28 -1 14 -5
120 -8 235 -18 631 98 1107 390 1599 154 259 383 523 616 711 63 51 178 155
256 231 154 152 218 205 309 256 l60 34 5 67 c3 37 3 67 0 67 -3 -1 -32 -10
-65 -21z"/>
<path d="M7274 7052 c-62 -125 -134 -261 -162 -304 l-50 -76 -4 -1845 c-2
-1015 0 -1849 4 -1853 4 -4 29 11 55 32 75 60 293 283 301 307 5 12 4 155 0
317 -4 162 -3 1030 2 1928 10 1612 10 1634 -9 1678 -11 24 -21 44 -23 44 -2 0
-53 -102 -114 -228z"/>
<path d="M7598 6673 l3 -288 59 -145 c67 -165 120 -341 149 -492 63 -326 53
-732 -29 -1168 -16 -85 -69 -267 -102 -350 -50 -124 -58 -176 -64 -440 l-6
-245 60 85 c73 102 215 375 272 520 185 476 245 1057 160 1556 -29 166 -97
435 -142 559 -58 158 -184 414 -260 530 -36 55 -73 115 -82 133 -9 17 -18 32
-19 32 -1 0 -1 -129 1 -287z"/>
<path d="M6756 6260 c-80 -122 -153 -217 -231 -299 l-74 -77 -6 -1565 c-3
-860 -2 -1597 2 -1637 l8 -73 177 89 178 90 4 1708 c2 940 1 1738 -2 1774 l-7
65 -49 -75z"/>
<path d="M3322 6091 c-98 -72 -72 -136 76 -191 66 -24 73 -39 29 -54 -20 -8
-31 -6 -46 8 -13 12 -31 16 -58 14 -35 -3 -38 -6 -41 -34 -3 -26 3 -36 30 -55
45 -33 152 -34 195 -3 43 32 70 86 58 120 -12 34 -63 70 -119 85 -49 13 -67
26 -60 44 10 24 36 26 56 5 23 -25 49 -26 79 -2 44 36 -1 77 -96 87 -56 6 -63
5 -103 -24z"/>
<path d="M6077 5532 c-62 -59 -141 -129 -176 -155 l-63 -47 -5 -1428 c-3 -785
-1 -1437 3 -1448 9 -21 9 -21 84 -4 41 10 121 28 177 40 l103 23 2 1564 c2
859 -1 1563 -5 1563 -5 0 -59 -48 -120 -108z"/>
<path d="M5487 5084 c-49 -35 -123 -84 -165 -108 l-77 -44 -6 -378 c-8 -521
-10 -2104 -3 -2143 l7 -31 136 0 c75 0 153 3 174 6 l37 7 0 1378 c0 759 -3
1379 -7 1378 -5 0 -48 -29 -96 -65z"/>
<path d="M4915 4751 c-44 -25 -124 -67 -177 -91 l-97 -44 -3 -1071 c-2 -588 0
-1073 3 -1078 5 -7 315 -67 347 -67 16 0 17 89 17 1200 0 660 -2 1200 -5 1199
-3 0 -41 -22 -85 -48z"/>
<path d="M4395 4492 c-13 -12 -212 -94 -297 -122 l-68 -23 6 -831 c3 -457 9
-835 13 -839 7 -7 289 -121 332 -134 15 -4 17 32 23 399 10 559 4 1562 -9
1550z"/>
<path d="M3625 4210 c-82 -27 -160 -49 -172 -49 l-23 -1 0 -530 0 -529 31 -35
c35 -40 188 -165 269 -221 l55 -37 6 134 c9 179 11 1166 2 1251 -3 37 -9 67
-12 66 -3 -1 -73 -23 -156 -49z"/>
<path d="M3150 4069 c-14 -6 -74 -21 -135 -35 -60 -13 -142 -31 -181 -40 l-71
-16 19 -50 c28 -74 53 -121 131 -243 74 -117 180 -262 244 -333 l38 -44 2 386
c3 412 5 396 -47 375z"/>
</g>
</svg>
